<svg preserveAspectRatio="none" width="100%" height="100%" overflow="visible" style="display: block;" viewBox="0 0 25.75 25.75" fill="none" xmlns="http://www.w3.org/2000/svg">
<g id="Frame">
<path id="Vector" d="M18.2395 11.802H19.3124C20.1661 11.802 20.9848 12.1411 21.5884 12.7447C22.192 13.3484 22.5312 14.1671 22.5312 15.0207C22.5312 15.8744 22.192 16.6931 21.5884 17.2967C20.9848 17.9004 20.1661 18.2395 19.3124 18.2395H18.2395" stroke="var(--stroke-0, white)" stroke-width="1.73766" stroke-linecap="round" stroke-linejoin="round"/>
<path id="Vector_2" d="M9.65625 12.875V19.3125" stroke="var(--stroke-0, white)" stroke-width="1.73766" stroke-linecap="round" stroke-linejoin="round"/>
<path id="Vector_3" d="M13.948 12.875V19.3125" stroke="var(--stroke-0, white)" stroke-width="1.73766" stroke-linecap="round" stroke-linejoin="round"/>
<path id="Vector_4" d="M15.0208 8.04678C13.9479 8.04678 13.4758 8.58324 11.8021 8.58324C10.1283 8.58324 9.65625 8.04678 8.58333 8.04678C7.51042 8.04678 6.73792 8.58324 5.90104 8.58324C5.18965 8.58324 4.5074 8.30064 4.00438 7.79761C3.50135 7.29459 3.21875 6.61233 3.21875 5.90095C3.21875 5.18956 3.50135 4.50731 4.00438 4.00428C4.5074 3.50125 5.18965 3.21866 5.90104 3.21866C6.73792 3.21866 7.58552 3.75511 8.58333 3.75511C9.58115 3.75511 10.1283 2.14574 11.8021 2.14574C13.4758 2.14574 13.9479 3.75511 15.0208 3.75511C16.0938 3.75511 16.8663 3.21866 17.7031 3.21866C18.4145 3.21866 19.0968 3.50125 19.5998 4.00428C20.1028 4.50731 20.3854 5.18956 20.3854 5.90095C20.3854 6.61233 20.1028 7.29459 19.5998 7.79761C19.0968 8.30064 18.4145 8.58324 17.7031 8.58324C16.8663 8.58324 16.0938 8.04678 15.0208 8.04678Z" stroke="var(--stroke-0, white)" stroke-width="1.73766" stroke-linecap="round" stroke-linejoin="round"/>
<path id="Vector_5" d="M5.36449 8.58324V21.4582C5.36449 22.0273 5.59057 22.5731 5.99299 22.9756C6.39541 23.378 6.94121 23.6041 7.51032 23.6041H16.0937C16.6628 23.6041 17.2086 23.378 17.611 22.9756C18.0134 22.5731 18.2395 22.0273 18.2395 21.4582V8.58324" stroke="var(--stroke-0, white)" stroke-width="1.73766" stroke-linecap="round" stroke-linejoin="round"/>
</g>
</svg>
