<svg preserveAspectRatio="none" width="100%" height="100%" overflow="visible" style="display: block;" viewBox="0 0 15.6742 19.2557" fill="none" xmlns="http://www.w3.org/2000/svg">
<g id="apple logo" clip-path="url(#clip0_0_5)">
<path id="Vector" d="M15.1754 6.56419C15.0637 6.65084 13.092 7.7619 13.092 10.2324C13.092 13.09 15.601 14.1009 15.6761 14.1259C15.6645 14.1875 15.2775 15.5104 14.3532 16.8583C13.5291 18.0444 12.6683 19.2287 11.3589 19.2287C10.0496 19.2287 9.71258 18.4681 8.20101 18.4681C6.72795 18.4681 6.20419 19.2537 5.00649 19.2537C3.80878 19.2537 2.97308 18.1561 2.01222 16.8082C0.899242 15.2254 0 12.7665 0 10.4327C0 6.68935 2.43392 4.70409 4.82933 4.70409C6.10214 4.70409 7.16313 5.53979 7.96224 5.53979C8.72284 5.53979 9.90899 4.65402 11.357 4.65402C11.9058 4.65402 13.8776 4.70409 15.1754 6.56419ZM10.6696 3.06928C11.2684 2.35874 11.6921 1.37285 11.6921 0.386956C11.6921 0.250241 11.6805 0.1116 11.6555 -8.36119e-05C10.6811 0.0365022 9.52195 0.648834 8.82297 1.4595C8.27418 2.08338 7.76198 3.06928 7.76198 4.06865C7.76198 4.21884 7.78701 4.36904 7.79857 4.41718C7.86018 4.42873 7.96031 4.44221 8.06044 4.44221C8.93465 4.44221 10.0342 3.85684 10.6696 3.06928Z" fill="var(--fill-0, white)"/>
</g>
<defs>
<clipPath id="clip0_0_5">
<rect width="15.6742" height="19.2557" fill="white"/>
</clipPath>
</defs>
</svg>
