<svg preserveAspectRatio="none" width="100%" height="100%" overflow="visible" style="display: block;" viewBox="0 0 835.859 608.491" fill="none" xmlns="http://www.w3.org/2000/svg">
<g id="Group">
<path id="Vector" d="M582.273 608.334C576.145 607.777 567.871 605.706 561.597 603.159C552.532 599.479 545.558 595.133 528.292 582.404C520.28 576.497 472.531 541.191 465.699 536.122C461.367 532.907 435.623 513.865 425.976 506.739C423.571 504.963 408.974 494.167 393.537 482.748C365.018 461.651 358.585 456.894 351.536 451.688C349.365 450.084 339.906 443.086 330.517 436.137C321.128 429.188 308.879 420.126 303.296 416.001C297.713 411.875 286.225 403.381 277.767 397.124C269.308 390.868 259.273 383.446 255.467 380.631C251.661 377.816 241.556 370.341 233.013 364.02C212.94 349.166 177.283 322.793 155.041 306.348C145.399 299.218 130.519 288.214 121.976 281.893C100.996 266.371 96.8179 263.282 88.0915 256.835C80.0089 250.864 53.8869 231.545 36.7759 218.882C20.5607 206.883 17.514 204.469 12.6706 199.779C6.19914 193.514 2.50006 187.788 0.730139 181.296C-0.182234 177.95 -0.251744 171.531 0.590484 168.399C2.46344 161.434 5.62117 156.47 12.2652 150.048C16.9516 145.518 22.7751 141.134 41.082 128.353C48.9485 122.861 63.2741 112.856 72.9168 106.119C82.5595 99.3826 96.3315 89.7628 103.521 84.7419C122.936 71.1837 146.811 54.5062 168.267 39.5147C203.955 14.5794 206.385 12.9341 212.867 9.31182C220.75 4.90633 229.469 1.86008 237.935 0.553694C242.28 -0.116931 252.928 -0.194981 257.312 0.411645C265.935 1.60454 274.437 4.38174 282.38 8.59994C289.475 12.3675 294.186 15.5674 323.596 36.5951C327.656 39.498 337.761 46.694 346.05 52.5861C354.339 58.4782 362.99 64.6382 365.274 66.2751C367.558 67.9119 376.208 74.0747 384.498 79.9701C392.787 85.8656 405.521 94.9328 412.795 100.12C420.07 105.306 442.908 121.571 463.546 136.263C496.3 159.579 512.757 171.299 560.127 205.045C565.71 209.022 577.544 217.444 586.425 223.761C595.307 230.078 608.525 239.49 615.799 244.676C628.996 254.085 637.117 259.869 667.627 281.585C676.509 287.907 689.727 297.321 697.001 302.504C711.307 312.698 739.215 332.571 771.436 355.51C817.72 388.459 817.252 388.107 824.038 395.128C830.445 401.757 833.801 407.614 835.241 414.681C836.966 423.144 835.104 430.891 829.38 439.071C826.997 442.476 819.532 449.765 813.575 454.504C805.282 461.1 641.89 586.738 636.213 590.884C629.242 595.974 624.943 598.66 619.49 601.33C611.523 605.231 604.414 607.306 595.807 608.243C593.205 608.526 584.994 608.581 582.273 608.334ZM114.902 126.961C117.538 126.34 120.205 125.117 122.96 123.266C125.123 121.813 148.107 105.7 154.426 101.207C156.118 100.004 162.067 95.8404 167.647 91.9548C179.331 83.8188 182.073 81.4311 183.177 78.4307C185.903 71.0259 178.165 63.8057 167.498 63.8002C163.118 63.798 160.034 64.5267 156.733 66.3442C153.457 68.1479 98.2305 107.011 96.5372 108.704C94.0716 111.17 93.2412 112.951 93.2278 115.802C93.2147 118.658 93.9861 120.403 96.2717 122.686C100.543 126.952 107.837 128.626 114.902 126.961Z" fill="var(--fill-0, white)"/>
</g>
</svg>
